/* XPM */
static char *_6e5a3edf3894924cf2dc28e1d21234fhGo5Egy7Qip5g891[] = {
/* columns rows colors chars-per-pixel */
"32 32 190 2 ",
"   c None",
".  c black",
"X  c #020000",
"o  c #040000",
"O  c #050000",
"+  c #060000",
"@  c #080005",
"#  c #04000B",
"$  c #03000D",
"%  c #04000D",
"&  c #140000",
"*  c #160000",
"=  c #170000",
"-  c #1C0000",
";  c #09190F",
":  c #050011",
">  c #060D15",
",  c #071416",
"<  c #24000E",
"1  c #240010",
"2  c #260011",
"3  c #270014",
"4  c #260017",
"5  c #062010",
"6  c #092112",
"7  c #092D1C",
"8  c #0C351B",
"9  c #0B341C",
"0  c #0B351C",
"q  c #0B361E",
"w  c #0A3520",
"e  c #0D4525",
"r  c #0E4625",
"t  c #0F4C26",
"y  c #0E4B28",
"u  c #0D4A2A",
"i  c #0F522B",
"p  c #0F542D",
"a  c #0F552E",
"s  c #105229",
"d  c #10562E",
"f  c #10572F",
"g  c #10582F",
"h  c #10592F",
"j  c #135D2D",
"k  c #135F2E",
"l  c #0E5C31",
"z  c #17692F",
"x  c #146531",
"c  c #126235",
"v  c #156832",
"b  c #166D35",
"n  c #166D36",
"m  c #166E36",
"M  c #166F37",
"N  c #146F3C",
"B  c #187336",
"V  c #14713E",
"C  c #1A7D3A",
"Z  c #1F8E42",
"A  c #1D8D46",
"S  c #229E4A",
"D  c #22A552",
"F  c #25AB51",
"G  c #26AC52",
"H  c #22AE5A",
"J  c #27B255",
"K  c #28B95A",
"L  c #29BB5A",
"P  c #27AB61",
"I  c #26B565",
"U  c #22BC68",
"Y  c #23BF6A",
"T  c #2AC15E",
"R  c #00D564",
"E  c #00D665",
"W  c #00D766",
"Q  c #00D667",
"!  c #00D46F",
"~  c #00D76E",
"^  c #00D772",
"/  c #02D874",
"(  c #2BC863",
")  c #2CCA63",
"_  c #2CCC64",
"`  c #2CCC65",
"'  c #2CCD65",
"]  c #2CCE66",
"[  c #24C66E",
"{  c #25C76E",
"}  c #24C96F",
"|  c #2CD26A",
" . c #2DD66E",
".. c #2DD86F",
"X. c #25C970",
"o. c #25CA70",
"O. c #26CD72",
"+. c #2ACB72",
"@. c #27D376",
"#. c #28D879",
"$. c #29DD7C",
"%. c #29DE7C",
"&. c #30D77A",
"*. c #00F37A",
"=. c #00F37B",
"-. c #00F37C",
";. c #00F27F",
":. c #2EE075",
">. c #2FE67A",
",. c #2AE17E",
"<. c #2EE17F",
"1. c #2CE77F",
"2. c #2FEC7E",
"3. c #00F382",
"4. c #00F785",
"5. c #07F484",
"6. c #00FB81",
"7. c #0EFF8D",
"8. c #11F384",
"9. c #15F485",
"0. c #18F284",
"q. c #1AFC8A",
"w. c #2BE681",
"e. c #2EEC80",
"r. c #2EED82",
"t. c #2CEB84",
"y. c #2DEE85",
"u. c #2DEE86",
"i. c #2DEF86",
"p. c #2EF084",
"a. c #2EF185",
"s. c #2DF087",
"d. c #2DF187",
"f. c #2EF186",
"g. c #2EF287",
"h. c #2DF288",
"j. c #2DF289",
"k. c #2EF288",
"l. c #2EF388",
"z. c #2EF389",
"x. c #2DF489",
"c. c #2EF488",
"v. c #2EF489",
"b. c #2EF589",
"n. c #2EF58A",
"m. c #2DF68A",
"M. c #2EF68A",
"N. c #2EF68B",
"B. c #2FF88C",
"V. c #2EF88D",
"C. c #2FFA8C",
"Z. c #2FFA8D",
"A. c #2FFB8D",
"S. c #30F485",
"D. c #31F289",
"F. c #31F48A",
"G. c #32F48A",
"H. c #33F48A",
"J. c #34F48A",
"K. c #35F48B",
"L. c #37F48B",
"P. c #38F48B",
"I. c #30FC8D",
"U. c #30FC8E",
"Y. c #30FD8E",
"T. c #33FD8E",
"R. c #30FE8E",
"E. c #30FE8F",
"W. c #31FF91",
"Q. c #5FF198",
"!. c #64F49B",
"~. c #6DF4A0",
"^. c #6FFDA5",
"/. c #78F4A6",
"(. c #74FEA8",
"). c #80FFAE",
"_. c #8CFFB5",
"`. c #9DF6BC",
"'. c #9EF6BC",
"]. c #9FF6BD",
"[. c #A2F6BF",
"{. c #A3F6C0",
"}. c #A6F7C2",
"|. c #B8FFD1",
" X c #B9FFD1",
".X c #B9FFD2",
"XX c #BAFFD2",
"oX c #BDFFD4",
"OX c #BEFFD5",
"+X c #C2FFD8",
/* pixels */
"                                                                ",
"                                                                ",
"                                                                ",
"                                                                ",
"                                  ; O                           ",
"                                q $.Y O                         ",
"                                h a.W.Y O                       ",
"                                f u.x.T.{ O                     ",
"                                h u.x.k.T.O.@                   ",
"                                p u.x.k.k.T.@.6                 ",
"      . * 4 - . * 2 < 2 2 < 4 * l a.x.k.x.k.T.#.q               ",
"    5 I / E ! &.^ E E E E E E ! <.x.k.x.x.x.k.T.$.r             ",
"    P 7.^.+X_.6.(.OXXXXXXXXXOX).4.L.x.x.x.x.x.k.V.,.p           ",
"  . +.q.Q.}./.-.!.[.].].].].{.~.8.G.x.x.x.x.x.x.k.V.w.c         ",
"  . } T.0.=.3.L.9.=.-.-.-.-.=.5.G.x.x.x.x.x.x.x.x.k.V.t.N       ",
"  . o.T.D.P.G.x.G.P.L.L.L.L.P.G.x.x.x.x.x.x.x.x.x.x.k.V.u.V     ",
"  . o.T.k.x.x.x.x.x.x.x.x.x.x.x.x.x.x.x.x.x.x.x.x.x.k.k.T.H .   ",
"  . o.T.k.x.x.x.x.x.x.x.x.x.x.x.x.x.x.x.x.x.x.x.x.k.x.a.| z     ",
"  . { T.k.x.x.x.x.x.x.x.x.x.x.x.x.x.x.x.x.x.x.x.k.x.a.( B >     ",
"  . D S.k.k.k.k.k.k.k.k.k.k.k.k.x.x.x.x.x.x.x.k.x.r.L k $       ",
"    k L ' ' ' ' ' ' ' ' ' ' ' )  .x.x.x.x.x.k.x.>.G r           ",
"      y m m m m m m m m m m m x A a.x.x.k.x.x.:.S 7             ",
"                                y u.x.k.x.x...Z ,               ",
"                                h u.x.x.a.' C :                 ",
"                                f a.V.r.T v %                   ",
"                                t 1.2.J s #                     ",
"                                8 L F q                         ",
"                                  i w                           ",
"                                                                ",
"                                                                ",
"                                                                ",
"                                                                "
};
