/* XPM */
static char *_16e65f08f434e5cf84b5b798ab8efefJYAUZlPJTkQqyAke[] = {
/* columns rows colors chars-per-pixel */
"64 64 117 2 ",
"   c None",
".  c #060001",
"X  c #080005",
"o  c #070009",
"O  c #08050A",
"+  c #090E09",
"@  c #09150E",
"#  c #070811",
"$  c #071515",
"%  c #091610",
"&  c #081A14",
"*  c #0A2313",
"=  c #0A2916",
"-  c #082519",
";  c #092D1A",
":  c #0C341B",
">  c #0C3A1E",
",  c #0A3721",
"<  c #0C3D21",
"1  c #10451C",
"2  c #0C4223",
"3  c #0F4E27",
"4  c #0C4729",
"5  c #0F4F2A",
"6  c #114E23",
"7  c #0F532C",
"8  c #145A26",
"9  c #10552E",
"0  c #126234",
"q  c #156934",
"w  c #136D3A",
"e  c #15733D",
"r  c #16783F",
"t  c #157641",
"y  c #157942",
"u  c #178447",
"i  c #188345",
"p  c #1A8D4C",
"a  c #1C924C",
"s  c #1E984E",
"d  c #1B9753",
"f  c #1F9E50",
"g  c #1D9E58",
"h  c #219E4F",
"j  c #1DA359",
"k  c #1FAB5F",
"l  c #24A44B",
"z  c #22A554",
"x  c #23AA56",
"c  c #26A45C",
"v  c #2ABB55",
"b  c #26B45A",
"n  c #2ABD5B",
"m  c #21B464",
"M  c #22BC69",
"N  c #2CC057",
"B  c #2CC35B",
"V  c #2CC660",
"C  c #2BC964",
"Z  c #24C46D",
"A  c #25C86F",
"S  c #2CD46D",
"D  c #25CB71",
"F  c #27D175",
"G  c #2CD771",
"H  c #2CDB74",
"J  c #28D778",
"K  c #2ADE7B",
"L  c #2CE37C",
"P  c #01F382",
"I  c #0EF484",
"U  c #00FB87",
"Y  c #14F485",
"T  c #1FF285",
"R  c #18FB89",
"E  c #2BE781",
"W  c #2CEC84",
"Q  c #23F386",
"!  c #2EF186",
"~  c #2EF489",
"^  c #21FB8A",
"/  c #2EFA8C",
"(  c #33F48A",
")  c #3DF38D",
"_  c #30FC8E",
"`  c #30FD8E",
"'  c #30FE8E",
"]  c #30FF8F",
"[  c #30FC8D",
"{  c #31FB8D",
"}  c #4EF392",
"|  c #4EF493",
" . c #5BF397",
".. c #65F59D",
"X. c #6AF49E",
"o. c #6BF49F",
"O. c #6CF49F",
"+. c #6DF4A0",
"@. c #6EF4A1",
"#. c #6FF4A1",
"$. c #99F7BA",
"%. c #9AF7BB",
"&. c #AEF9C8",
"*. c #BBF9D1",
"=. c #BCF9D2",
"-. c #BCFAD2",
";. c #C4FAD7",
":. c #C5FAD8",
">. c #C8FADA",
",. c #C9FADB",
"<. c #D1FBE1",
"1. c #DFFCEB",
"2. c #E1FCED",
"3. c #E2FCED",
"4. c #E2FCEE",
"5. c #E5FDF0",
"6. c #E7FDF2",
/* pixels */
"                                                                                                                                ",
"                                                                                                                                ",
"                                                                                                                                ",
"                                                                                                                                ",
"                                                                                                                                ",
"                                                                                                                                ",
"                                                                                                                                ",
"                                                                                                                                ",
"                                                                    < < 2                                                       ",
"                                                                  : X . . <                                                     ",
"                                                                < . j K g . < >                                                 ",
"                                                                ; < W ] / m . < >                                               ",
"                                                                * 9 W ~ ! { M . > >                                             ",
"                                                                * 9 W ~ ! ! ] Z . : <                                           ",
"                                                                * 9 W ~ ! ~ ! ] D X : <                                         ",
"                                                                * 9 W ~ ! ~ ~ ! ] F * = <                                       ",
"                                                                * 9 W ~ ~ ~ ~ ~ ! { J : * <                                     ",
"                                                                * 9 W ~ ! ~ ~ ~ ~ ! / K 4 @ 2                                   ",
"                                                                * 9 W ~ ! ~ ~ ~ ~ ~ ! / L 7 X 2                                 ",
"                                                                * 9 W ~ ! ~ ~ ~ ~ ~ ~ ! / E 0 . 2                               ",
"                                                                : 5 W ~ ! ~ ~ ~ ~ ~ ~ ~ ! / W w . 2                             ",
"            > O . . . . . . . . . . . . . . . . . . . . . . . . . y ~ ~ ~ ~ ~ ~ ~ ~ ~ ~ ~ ! / W y . 2                           ",
"        : : . t j c c c c j j j j c c c c c c c c c c c c c c j k E ~ ! ~ ~ ~ ~ ~ ~ ~ ~ ~ ~ ! ~ ! u . 2                         ",
"        : = Z ~ { / U U R { / / { / U U U U U U U U U U U U ^ { / ~ ! ~ ~ ~ ~ ~ ~ ~ ~ ~ ~ ~ ~ ! ~ ~ p . 2                       ",
"      < . M ] ! Q ) #.#. .T ( ! Q ) #.O.O.O.O.O.O.O.O.X.X.#.} Q ( ! ~ ~ ~ ~ ~ ~ ~ ~ ~ ~ ~ ~ ~ ~ ! ~ ~ d . 2                     ",
"      * 9 W ~ ( P *.5.4.1...I ) P -.5.4.4.4.4.4.4.4.4.4.4.5.<.( ~ ( ~ ~ ~ ~ ~ ~ ~ ~ ~ ~ ~ ~ ~ ~ ~ ! ~ / j . <                   ",
"      X y ~ ! ( P %.>.:.-.| Q ( P %.>.;.:.:.:.:.:.:.:.;.;.>.&.~ ~ ~ ~ ~ ~ ~ ~ ~ ~ ~ ~ ~ ~ ~ ~ ~ ~ ~ ! ~ / k . <                 ",
"      X y ~ ~ ~ ~ P P Y P Q ( ~ ~ P P I I I I I I I I P I I P ~ ~ ~ ~ ~ ~ ~ ~ ~ ~ ~ ~ ~ ~ ~ ~ ~ ~ ~ ~ ! ! / m . <               ",
"      X y ~ ~ ~ ~ ( ( ( ( ( ~ ~ ~ ( ( ( ( ( ( ( ( ( ( ( ( ( ( ~ ~ ~ ~ ~ ~ ~ ~ ~ ~ ~ ~ ~ ~ ~ ~ ~ ~ ~ ~ ~ ! ! { M . >             ",
"      X y ~ ~ ~ ~ ~ ~ ~ ~ ~ ~ ~ ~ ~ ~ ~ ~ ~ ~ ~ ~ ~ ~ ~ ~ ~ ~ ~ ~ ~ ~ ~ ~ ~ ~ ~ ~ ~ ~ ~ ~ ~ ~ ~ ~ ~ ~ ~ ~ ~ ! ] Z . :           ",
"      X y ~ ~ ~ ~ ~ ~ ~ ~ ~ ~ ~ ~ ~ ~ ~ ~ ~ ~ ~ ~ ~ ~ ~ ~ ~ ~ ~ ~ ~ ~ ~ ~ ~ ~ ~ ~ ~ ~ ~ ~ ~ ~ ~ ~ ~ ~ ~ ~ ~ ~ ! ] A + >         ",
"      X y ~ ~ ~ ~ ~ ~ ~ ~ ~ ~ ~ ~ ~ ~ ~ ~ ~ ~ ~ ~ ~ ~ ~ ~ ~ ~ ~ ~ ~ ~ ~ ~ ~ ~ ~ ~ ~ ~ ~ ~ ~ ~ ~ ~ ~ ~ ~ ~ ~ ~ ~ ! ] m . <       ",
"      X y ~ ~ ~ ~ ~ ~ ~ ~ ~ ~ ~ ~ ~ ~ ~ ~ ~ ~ ~ ~ ~ ~ ~ ~ ~ ~ ~ ~ ~ ~ ~ ~ ~ ~ ~ ~ ~ ~ ~ ~ ~ ~ ~ ~ ~ ~ ~ ~ ~ ~ ~ ! / L 1 ;       ",
"      X y ~ ~ ~ ~ ~ ~ ~ ~ ~ ~ ~ ~ ~ ~ ~ ~ ~ ~ ~ ~ ~ ~ ~ ~ ~ ~ ~ ~ ~ ~ ~ ~ ~ ~ ~ ~ ~ ~ ~ ~ ~ ~ ~ ~ ~ ~ ~ ~ ~ ~ ! ~ ! B 6 ;       ",
"      X y ~ ~ ~ ~ ~ ~ ~ ~ ~ ~ ~ ~ ~ ~ ~ ~ ~ ~ ~ ~ ~ ~ ~ ~ ~ ~ ~ ~ ~ ~ ~ ~ ~ ~ ~ ~ ~ ~ ~ ~ ~ ~ ~ ~ ~ ~ ~ ~ ~ ! / E C l & >       ",
"      X y ~ ~ ~ ~ ~ ~ ~ ~ ~ ~ ~ ~ ~ ~ ~ ~ ~ ~ ~ ~ ~ ~ ~ ~ ~ ~ ~ ~ ~ ~ ~ ~ ~ ~ ~ ~ ~ ~ ~ ~ ~ ~ ~ ~ ~ ~ ~ ~ ! / L B n 0 * >       ",
"      X y ~ ! ~ ~ ~ ~ ~ ~ ~ ~ ~ ~ ~ ~ ~ ~ ~ ~ ~ ~ ~ ~ ~ ~ ~ ~ ~ ~ ~ ~ ~ ~ ~ ~ ~ ~ ~ ~ ~ ~ ~ ~ ~ ~ ~ ~ ! ~ ~ H B n 0 % >         ",
"      & q ! ~ ! ~ ~ ~ ~ ~ ~ ~ ~ ~ ~ ~ ~ ~ ~ ~ ~ ~ ~ ~ ~ ~ ~ ~ ~ ~ ~ ~ ~ ~ ~ ~ ~ ~ ~ ~ ~ ~ ~ ~ ~ ~ ~ ! ~ ~ S B b 4 @ >           ",
"      - 8 G / ~ ~ ~ ~ ~ ~ ~ ~ ~ ~ ~ ~ ~ ~ ~ ~ ~ ~ ~ ~ ~ ~ ~ ~ ~ ! ! ~ ~ ~ ~ ~ ~ ~ ~ ~ ~ ~ ~ ~ ~ ~ ! ~ ! C B z ; = >             ",
"      = 7 v S ! ~ ~ ~ ~ ~ ~ ~ ~ ~ ~ ~ ~ ~ ~ ~ ~ ~ ~ ~ ~ ~ ~ ~ ~ ~ ~ ~ ~ ~ ~ ~ ~ ~ ~ ~ ~ ~ ~ ~ ~ ! ~ W V B a o : >               ",
"      > # h B n C C C C C C C C C C C C C C C C C C C C C C C C C E ~ ! ~ ~ ~ ~ ~ ~ ~ ~ ~ ~ ~ ! / L B B i o > >                 ",
"        : , x B B B B B B B B B B B B B B B B B B B B B B B B B N C ! ~ ~ ~ ~ ~ ~ ~ ~ ~ ~ ~ ~ / K B n w o >                     ",
"        : : & e a a a a a a a a a a a a a a a a a a a a a a a a s B ! ~ ~ ~ ~ ~ ~ ~ ~ ~ ! ~ ~ G B b 7 O >                       ",
"            : @ o o o o o o o o o o o o o o o o o o o o o o o O . r ! ~ ~ ~ ~ ~ ~ ~ ~ ! ~ ~ S B x , * >                         ",
"                                                                ; 7 W ~ ! ~ ~ ~ ~ ~ ! ~ ! C B f $ : >                           ",
"                                                                * 9 W ~ ! ~ ~ ~ ~ ! / E B B p o > >                             ",
"                                                                * 9 W ~ ! ~ ~ ~ ! / L B n y o >                                 ",
"                                                                * 9 W ~ ! ~ ! ~ ~ H B n 0 o >                                   ",
"                                                                * 9 W ~ ! ! ~ ~ S B b 4 @ >                                     ",
"                                                                * 9 W ~ ! ~ ! C B z ; = >                                       ",
"                                                                = 3 W ~ / W V B a o : >                                         ",
"                                                                ; > S ! L B B i o > >                                           ",
"                                                                ; 2 v n N n w o >                                               ",
"                                                                > & z C b 7 O >                                                 ",
"                                                                  : 2 e , * >                                                   ",
"                                                                    ; O : >                                                     ",
"                                                                                                                                ",
"                                                                                                                                ",
"                                                                                                                                ",
"                                                                                                                                ",
"                                                                                                                                ",
"                                                                                                                                ",
"                                                                                                                                ",
"                                                                                                                                "
};
