/* XPM */
static char *_1a734173f144360b2da46d98660a987AsCZFYiuYbwKBgtx[] = {
/* columns rows colors chars-per-pixel */
"32 32 160 2 ",
"   c None",
".  c #010000",
"X  c #020000",
"o  c #030000",
"O  c #030001",
"+  c #040101",
"@  c #0C0102",
"#  c #0A0405",
"$  c #120000",
"%  c #170100",
"&  c #260100",
"*  c #2B0200",
"=  c #330200",
"-  c #360200",
";  c #3B0300",
":  c #3F190F",
">  c #3E1510",
",  c #62150D",
"<  c #4A2822",
"1  c #5F2725",
"2  c #683C28",
"3  c #763A32",
"4  c #7A453B",
"5  c #403947",
"6  c #4B4154",
"7  c #5D4C54",
"8  c #634347",
"9  c #6A4749",
"0  c #6E484E",
"q  c #7D4A43",
"w  c #75504D",
"e  c #765050",
"r  c #5C5663",
"t  c #6D5874",
"y  c #79696E",
"u  c #802D1B",
"i  c #964C4A",
"p  c #835A59",
"a  c #8A5958",
"s  c #985E54",
"d  c #9C5958",
"f  c #A94F4D",
"g  c #A7594F",
"h  c #8F604E",
"j  c #976852",
"k  c #96675B",
"l  c #92635F",
"z  c #996A5A",
"x  c #896264",
"c  c #956A68",
"v  c #9A7366",
"b  c #996F77",
"n  c #8A777F",
"m  c #967072",
"M  c #947879",
"N  c #AA6566",
"B  c #A0656B",
"V  c #B86560",
"C  c #B86766",
"Z  c #BA6F6C",
"A  c #A87A65",
"S  c #BC7D67",
"D  c #A46E72",
"F  c #A27D75",
"G  c #AF7873",
"H  c #AA7A76",
"J  c #B57F70",
"K  c #AD806B",
"L  c #BA8066",
"P  c #BD8568",
"I  c #B68677",
"U  c #B4867C",
"Y  c #AB907E",
"T  c #BF917E",
"R  c #C8807F",
"E  c #C5887E",
"W  c #C89174",
"Q  c #656A82",
"!  c #717191",
"~  c #6D76AC",
"^  c #717AAB",
"/  c #866C8D",
"(  c #8D7892",
")  c #8E8A8B",
"_  c #98838E",
"`  c #A88583",
"'  c #A98185",
"]  c #A88486",
"[  c #BA8A81",
"{  c #B5888B",
"}  c #A18492",
"|  c #A08B99",
" . c #A79190",
".. c #B99190",
"X. c #898AA3",
"o. c #9C8CA3",
"O. c #978FAE",
"+. c #9D9AA8",
"@. c #8F98B9",
"#. c #AD96A1",
"$. c #A493AA",
"%. c #AB9DAE",
"&. c #9EA0B2",
"*. c #A9A3A5",
"=. c #ADA2A7",
"-. c #B1A2A5",
";. c #BCA2A6",
":. c #BBAFBA",
">. c #C68181",
",. c #C38787",
"<. c #C6888A",
"1. c #D38F8F",
"2. c #CC9B82",
"3. c #C1908A",
"4. c #C2928C",
"5. c #C0968C",
"6. c #CE968C",
"7. c #C59B8C",
"8. c #C29E9D",
"9. c #CC9C99",
"0. c #CC9A9C",
"q. c #CE9F9C",
"w. c #D49692",
"e. c #D59793",
"r. c #CDA58A",
"t. c #CFA28D",
"y. c #CAA48D",
"u. c #CEAC9D",
"i. c #D3AC95",
"p. c #D0A89A",
"a. c #D59FA0",
"s. c #CCA7A7",
"d. c #D1A0A1",
"f. c #DEA1A3",
"g. c #DBA7A5",
"h. c #D0ABA4",
"j. c #D6AFA9",
"k. c #D9B4A8",
"l. c #D2B3B6",
"z. c #DBB8B1",
"x. c #D5C7B8",
"c. c #A6ABC4",
"v. c #B4AFCB",
"b. c #B3B3C2",
"n. c #AFADD3",
"m. c #B5B1DD",
"M. c #C0AFC5",
"N. c #C7B3C9",
"B. c #C4B8CB",
"V. c #D5BECA",
"C. c #C3B9D0",
"Z. c #C9BBD6",
"A. c #C1B4D8",
"S. c #C7BEDD",
"D. c #BCC3DB",
"F. c #DEC1CF",
"G. c #CFC7DB",
"H. c #C8C9DF",
"J. c #D8C7DD",
"K. c #D4CCE7",
/* pixels */
"                                                                ",
"                                                                ",
"                                                                ",
"                                                                ",
"                                                                ",
"                                                                ",
"                                                                ",
"                                                                ",
"                                                                ",
"                                                                ",
"                                                  '             ",
"                                                B D e           ",
"            o + o o                           <.f.a.1           ",
"              o ) #                         g.>.1.d =           ",
"                o *.o                       4.e.R i -           ",
"                o o o @                     H e.C Z 3           ",
"                           .&               a N f V s           ",
"                          % > F I j Y x.    .., g u             ",
"                            $ : 2 h z 5.h.z.k.p.t.A             ",
"                                  * 4 G 3.[ 7.y.r.i.u.          ",
"                                      ; q U T 2.W P J j.        ",
"                                        9 w v K L S E q.        ",
"                                          r y < k 6.,.0.        ",
"                                          Q +.n 8.9.d.{         ",
"                                          ! G.| l.s.m M         ",
"                                          O.J.} ] ` 8 -.        ",
"                                          $.F.b l c ;.=.        ",
"                                          o.V.0 p x #.:.        ",
"                                          X.b.5 7 _ N.B.        ",
"                                          @.D.&.6 %.Z.C.        ",
"                                          ^ n.S.t M.K.H.        ",
"                                          ~ m.A./ ( v.c.        "
};
