/* XPM */
static char *_a65a7b94dd049aaa269136b01c511c86bU8TUwKYLCxkbIR[] = {
/* columns rows colors chars-per-pixel */
"64 64 255 2 ",
"   c #053A02",
".  c #0F370A",
"X  c #034D00",
"o  c #074601",
"O  c #174709",
"+  c #065300",
"@  c #0C5602",
"#  c #055D04",
"$  c #0D5B02",
"%  c #0C580A",
"&  c #135C02",
"*  c #145B0B",
"=  c #1B5C0C",
"-  c #185507",
";  c #184913",
":  c #195915",
">  c #0D4619",
",  c #245607",
"<  c #255B17",
"1  c #2B5315",
"2  c #0C6305",
"3  c #0D630B",
"4  c #0A6404",
"5  c #136205",
"6  c #13640B",
"7  c #1B640C",
"8  c #156A0C",
"9  c #1B6C0D",
"0  c #1A6804",
"q  c #1D710D",
"w  c #17710F",
"e  c #146B12",
"r  c #1B6C13",
"t  c #1B6518",
"y  c #1C7214",
"u  c #226C0E",
"i  c #266906",
"p  c #23740C",
"a  c #2C7A0C",
"s  c #277509",
"d  c #32780A",
"f  c #236C14",
"g  c #276819",
"h  c #356B14",
"j  c #247412",
"k  c #2A7413",
"l  c #257911",
"z  c #2C7C13",
"x  c #2C731B",
"c  c #28771B",
"v  c #337C14",
"b  c #37791A",
"n  c #336A0E",
"m  c #2C5425",
"M  c #296924",
"N  c #366828",
"B  c #2B7725",
"V  c #387925",
"C  c #397634",
"Z  c #346A35",
"A  c #1F4128",
"S  c #44741D",
"D  c #447828",
"F  c #497836",
"G  c #4B6D2E",
"H  c #3B7044",
"J  c #517A4B",
"K  c #63754D",
"L  c #537260",
"P  c #3D8A0C",
"I  c #36820D",
"U  c #2E8113",
"Y  c #348314",
"T  c #3B8415",
"R  c #3C8B14",
"E  c #35841A",
"W  c #3B891C",
"Q  c #3B851B",
"!  c #3A8524",
"~  c #3B8331",
"^  c #448C0E",
"/  c #438C15",
"(  c #4A8F14",
")  c #448D1A",
"_  c #448819",
"`  c #449115",
"'  c #4B9315",
"]  c #45931A",
"[  c #4B951B",
"{  c #4D991C",
"}  c #51961C",
"|  c #539B1D",
" . c #599E1E",
".. c #519817",
"X. c #4A910F",
"o. c #59A11E",
"O. c #468B27",
"+. c #449122",
"@. c #4C9423",
"#. c #4D9A23",
"$. c #47932B",
"%. c #549C22",
"&. c #599E22",
"*. c #529C2B",
"=. c #56982A",
"-. c #478735",
";. c #4C9832",
":. c #559C34",
">. c #54873A",
",. c #619E3B",
"<. c #55A123",
"1. c #5BA223",
"2. c #5CA42C",
"3. c #58A42B",
"4. c #5BA534",
"5. c #59A538",
"6. c #64A92A",
"7. c #62A628",
"8. c #64AA36",
"9. c #568948",
"0. c #548F4D",
"q. c #659649",
"w. c #678557",
"e. c #6E9658",
"r. c #65A944",
"t. c #66A359",
"y. c #70B547",
"u. c #6B9B67",
"i. c #74976F",
"p. c #78A667",
"a. c #75AC6E",
"s. c #4F8966",
"d. c #8AB273",
"f. c #8CC27B",
"g. c #7AAD8D",
"h. c #77D6ED",
"j. c #7DD3EE",
"k. c #7CD3F1",
"l. c #77D5F1",
"z. c #91B28E",
"x. c #A1AF86",
"c. c #A2BFA0",
"v. c #99C58B",
"b. c #9ACB90",
"n. c #A7C799",
"m. c #A6D798",
"M. c #B5D299",
"N. c #ADCF97",
"B. c #94CCAF",
"V. c #A6CBA4",
"C. c #AED7A7",
"Z. c #B6DBA8",
"A. c #BADAB9",
"S. c #B1CEB1",
"D. c #BCE7AB",
"F. c #BAE4B5",
"G. c #BDFAAA",
"H. c #BEEA9D",
"J. c #C8DABA",
"K. c #CAD6B4",
"L. c #C5E3AB",
"P. c #C7E6B8",
"I. c #D4E5BB",
"U. c #C5F5B9",
"Y. c #D6F8BE",
"T. c #E1F6BB",
"R. c #8CD4DD",
"E. c #94D4DD",
"W. c #9CD6DC",
"Q. c #9DD9DD",
"!. c #99D4D6",
"~. c #98CEC9",
"^. c #AAD7CB",
"/. c #B9D6CA",
"(. c #A2D6DA",
"). c #A3D9DC",
"_. c #A7D7D6",
"`. c #B6DAD7",
"'. c #B6CEC5",
"]. c #ABE2D8",
"[. c #BAE4DE",
"{. c #BFEDCD",
"}. c #8DD5E5",
"|. c #83D5ED",
" X c #8AD6EC",
".X c #8FD9E9",
"XX c #94D6E3",
"oX c #9BD7E1",
"OX c #94D9E5",
"+X c #9CD9E1",
"@X c #91D9EB",
"#X c #81D5F0",
"$X c #85D5F0",
"%X c #A2DAE1",
"&X c #AAD8E2",
"*X c #B6DCE7",
"=X c #BAE6E6",
"-X c #B1E8E9",
";X c #9DE1E2",
":X c #C6DBC3",
">X c #CDDCC4",
",X c #CDDBC9",
"<X c #C5D7C7",
"1X c #D2DDC5",
"2X c #D3DCCA",
"3X c #D9D9CB",
"4X c #CADDD3",
"5X c #C4DCD3",
"6X c #D5DFD3",
"7X c #CCE3C4",
"8X c #CDE3CB",
"9X c #C7E7C8",
"0X c #D3E3CC",
"qX c #DAE2CC",
"wX c #D5EAC7",
"eX c #D9F8C8",
"rX c #CDE2D5",
"tX c #CBE6D8",
"yX c #D3E2D5",
"uX c #DCE4D3",
"iX c #DCECD3",
"pX c #D4E6DB",
"aX c #DBE6DB",
"sX c #D3E9DC",
"dX c #DCE9DC",
"fX c #D5EBD3",
"gX c #DCF3DB",
"hX c #D8F6D5",
"jX c #CCF5D0",
"kX c #E1E5D6",
"lX c #E3EDD5",
"zX c #E4ECDC",
"xX c #E6EADC",
"cX c #E2F3DB",
"vX c #EAF3DC",
"bX c #E1F8D8",
"nX c #E1FAC7",
"mX c #C9E9E5",
"MX c #D4ECE3",
"NX c #DCECE2",
"BX c #D3EAE7",
"VX c #CAF4EA",
"CX c #DDF4E5",
"ZX c #D6F3EC",
"AX c #D9F7E6",
"SX c #D7F8F3",
"DX c #CBF7F6",
"FX c #E3EEE2",
"GX c #E9EFE2",
"HX c #E4F3E3",
"JX c #EBF3E3",
"KX c #E3FBE4",
"LX c #E6F7E9",
"PX c #E1FFF1",
"IX c #C0DFE1",
/* pixels */
"j.j.k.k.k.k.k.k.k.k.k.k.k.k.l.l.l.k.k.k.l.l.h.h.h.h.h.h.h.h.h.h.j.k.k.k.k.k.k.k.k.k.k.k.k.k.k.j.j.j.j.j.j.j.j.j.j.j.j.j.j.j.j.j.",
"j.j.k.k.k.k.k.k.k.k.k.k.k.k.l.l.l.k.k.k.k.j.j.j.j.j.j.j.j.h.h.j.j.j.k.j.k.j.k.j.k.j.k.j.k.j.k.j.j.j.j.j.j.j.j.j.j.j.j.j.j.j.j.j.",
"j.j.j.j.j.j.j.j.k.k.k.k.k.k.k.k.k.k.k.k.k.k.k.j.j.j.j.j.j.j.j.j.j.j.k.j.k.j.k.j.k.j.k.j.k.j.k.j.j.j.j.j.j.j.j.j.j.j.j.j.j.j.j.j.",
"k.j.k.j.k.j.k.j.k.k.k.k.k.k.k.k.k.#X#X#X#X#X#X|.#X|.|.|.|.|.|.|.|.|.#X|.#X|.#X|.#X|.#X|.#X|.#X|.|.|.|.|.|.|.|.|.j.j.j.j.j.j.j.j.",
"#X|.#X|.#X|.#X|.#X#X#X#X#X#X#X#X$X$X$X$X$X$X$X|.$X X X X X X X|.|.|.$X|.$X|.$X|.$X|.$X|.$X|.$X|.|.|.|.|.|.|.|.|.|.|.|.|.|.|.|.|.",
"|.|.|.|.|.|.|.|.|.|.|.|.|.|.|.|. X|. X X X X X X X X X X X X X X X X X X X X X X X X X X X X X X X X X X X X X X X X X X X X X X",
"|.|.|.|.|.|. X X X X X X X X X X X X X X X X X X X X X X X X X X X X X X X X X X X X X X X X X X X X X X X X X X X X X X X X X X",
" X X X}. X}.}.}.}.}.}.}.XXXX}.}.}.}.}.}.}.}.}.}. X X X X X X X X X}.}.}.}.}.}.}.}.}.}.}.}.}.}.}.}.}.}.}.}.}.}.}.}.}.}.}.}.}.}.}.",
".X}.}.OXOXR.R.XXE.R.R.R.E.E.W.E.OXR.R.R.R.R.}.OXXXXX}.}. X@X@X@X}.}.}.}.}.}.}.}.XXXXXX}.}.}.}.}.XXXXXXXXXXXXXXXXXXXXXXXXXXXXXXXX",
"OXXXE.E.XXE.E.W.%XW.W.%X-X-X).!.!.!.Q.;XW.E.E.OXXXXXXX}.OX.X.X}.OXOXOXOXOXXXXXXXXXXXXXXXXXXXXXXXXXXXXXXXXXXXXXXXXXXXXXXXXXXXXXXX",
"W.W.E.!.!.W.(.!.!.(.&X=XDXDXmX=X!.].-X-X-X!.!.W.E.E.XXOXOXOXXX}.OXoXoXoXXXXXXXE.E.E.XXoXoXXXXXE.XXXXXXXXXXXXXXXXXXXXXXXXXXXXXXXX",
"!.W.!.!.(.-X-X`.~.`.VXSXSXSXSXSX[.VXDXDX=X_.(.(.W.W.W.W.oXoXXXXXoXW.W.W.W.W.W.E.W.W.Q.+X+XW.W.E.oXoXoXoXoXoXoXoXoXoXoXoXoXoXoXoX",
"(._._._.[.VXDXVX`.mXSXSXZXMXZXSXZXZXSXSXVX=X[.=X_.(.!.W.W.W.oX+X+X+XQ.Q.Q.Q.Q.W.Q.Q.+X%X%X+X+XQ.oXoXoXW.oXW.oXW.oX+XoX+XoX+XoX+X",
"_._._.`.=XVXSXZXZXZXMXMXNXNXNXNXCXNXMXZXZXZXZXZX`._._.(.).(.W.%X).Q.Q.Q.Q.Q.Q.Q.W.W.W.W.W.Q.Q.Q.W.W.oXW.oXW.oXW.+XQ.+XQ.+XQ.%X).",
"=X`.`.[.mXVXBXMXZXMXpXpXNXFXFXzXzXaXaXNXFXNXZXSXmXIX*X=X=X&X(.).W.W.W.W.).).).).%X).).(.W.W.(.).).).).).%X).).).%X).%X).%X).%X).",
"SXmXtXVXZXZXMXMXsXNXCXNXaXyXaXzXxXkXkXzXzXaXMXBXZXBXBXSXDX=X`.`._.).)._._._._._.=X=X=X]._.).).)._.(.(.).).).(.(.(.).).).).).%X%X",
"sXMXMXsXsXsXMXMXMXsXpXsXsXpXpXpXaXzXzXGXGXFXdXpXpXpXMXBXmXmXmXmX_.^.^.^.[.VXAXAXAXAXSXSXmX^.^.`.(.DX~._.].~.~.].].~.]._.(.&X&X%X",
"pXpXsXpXpXpXpXsXsXsXpXsXpXrXpXpXzXvXJXJXJXHXFXFXaXpXpXpXMXMXMXmX^.^.^.{.MXAXCXCXgXgXAXAXtX/.^.^.^.~._.].^.{.B.g.s.B.VX`.~._.*X*X",
"rXrXrXrXrXrXrXrXrXrXyXpXpXyXyXaXJXJXJXJXJXJXHXHXNXpXyX4XrXrX4X5X'.`.tXAXAXKXKXcXKXgXCXKXAXtX`.`.VX^.^.B.g.B.s.> > g.SXVX`.`.`.`.",
"4X4X4XrX4X4X4XyXrX4X4XyXaXdXdXzXJXJXJXJXJXJXHXHXFXaX4X4X4X4X<X'.tXtXAXKXKXKXcXcXKXcXcXKXKXAXMXMXSXVXi.m . > Z 9.> H S.PXtX/./.`.",
"4X5X5X4X4X5X4XyXdX4X4XpXFXHXGXzXJXvXvXzXzXzXGXHXLXdXyX4X4X4X,X/.CXCXLXKXcXcXcXvXvXcXcXHXHXCXLXKX{.u.; O C N < - M   u.hXjX/.rXpX",
"5X/./.5X5X5X4XpXLXNXaXFXLXJXGXzXGXvXvXvXzXzXzXzXJXFXaXaXNXNXNXaXLXLXHXHXcXlXvXvXvXvXvXcXgXgXHXKXb.: M g < g - = C o u.hXhXhXKXsX",
"5X/././.5X<X4XNXLXFXFXGXGXxXxXvXxXxXxXxXxXxXxXzXzXzXdXaXFXHXLXLXHXHXcXcXlXlXvXvXvXvXvXcXgXgXhXhXu.  g = = V x x V = p.eXbXKXHXfX",
"/./.'./././.4XNXNXdXzXxXkXuXkXvXkXkXkXxXxXkXkXuXkXuXuXaXaXzXGXHXgXcXcXcXlXlXlXlXlXlXlXiXhXhXjX9X: - B f x f c x f = 9.b.9XhXfXHX",
"`.'.z.5X/.4X/.dXNXaXzXkXuXxXxXkXkXkXkXuXuXuXuXkXuXuXuXzXzXzXHXHXiXiXiXiXiXiXlXiXlXiXgXfXV.9XhXC.: g g B r B 9 6 7 * < F jXhXfXfX",
"9X/.L /.5X'.5X<XyX2XaXuX6XkXkX6XuXuXuXuXqXqXqXuXqXqXuXuXuXzXdXdXfXfXfXfXiXiXiXfXcXJ.J.hXi.F.9Xd.% % % r 6 y 3 6 6 * - J F.9XgX8X",
"9XS.A S.tX8X8X<X,X,X,X2X0X2X3X2X2X2X2X2X2X2X1X1X2X2X2X0X0X0XuX0X0X8X0X0X0X0X0X0X7X8XbXC.; V.jXZ M t % t 6 e 2 8 6 + t ; J V.9XrX",
"{.g.. z.9XhXA.8X:X,X<X,X2X,X2X2X>X>X>X>X1X1X>X>X1X>X>X1X1X1X2X>X7X7X7X7X>X7X,X7X8XA.9XV.  a.v.  ; t : B e r 8 8 y 6 o : m J A.fX",
"A.u.. i.A.jXA.A.A.0X<X:X,X<X2X2X>X:X>X>X1X1X>X:X>X>X>X>X>X>X>X>XJ.J.>X:X>X>X,X,X0X8XS.V.. d.a.; o M : B t y y e 6 B 0.N Z C.9XS.",
"F.i.; u.P.A.hXc.V.fX:X:X8X<X0X,X,X:X:X>X>X2X>X>X>X>X>X>X>X>X>X>XJ.J.>X>X>X,X,X,X<XfXhXu.; 9.m.u.u.u.M M * e B c B f g a.C.C.wX>X",
"Z.9.m J A.A.hXi.z.0X:X:X8X<XyX>X8X>X:X:X>X0X>X>X7X7X>X>X>X>X1X1X1XJ.1X1X2X2X2X2X,XS.8Xu.m ; b.U.U.v.M : % % f c f @ : C C.wXP.8X",
"v.O < . v.F.A.K i.7X>X:X0X:X0XJ.7XP.J.J.P.7X7X>X7X7X1X1X1X2X2X1X1X1X1X1X2X2X2X2X>XiX7Xn.m u.C.U.F.u.  ; < - = -   = O O z.P.wXK.",
"t.o O p.n.P.Z.G K J.J.>XwXK.1X7XU.b.9.F b.P.L.wX7XK.lX1XK.kX3X3X3X3XK.3XJ.3X1X7X7XwXwXd.. p.eXD.Z.S.K w.w.m K p.e.a.J 0.C.P.K.I.",
"0.B o t.D.U.L.1 K J.I.J.wXiXiXn.m.-.g g < p.P.Z.P.7XK.qXvX3X3X3X3X1X3XqXqX1XI.I.J.eXM.1 N N v.eXeXF.J.7Xx.K K.P.eXm.a.0.w.d.L.K.",
"B f * M f.D.p.O O x.eXwXP.P.n.J - x >.-.< C d.D.Z.eXK.J.lXJ.1X3X7XK.iXI.M.i.n.eXD.Z.v.O N O p.m.m.M.Y.nXT.e.x.nXD.0.Z Z ; e.nXI.",
"B r B @ -.f.-.g < e.v.Z.L.P.d.- V -.i - -.D , N p.M.eXP.K.wXwXnXeXL.P.L.d.1 F N.Y.U.m.D - - -.C 9.D e.M.T.d.d.D.D.9.B C ; 9.L.L.",
"3 6 3 @ % M V - N N D 9.q.t.q.h O.! b b V D D V h F N.Y.L.M.M.Z.d.e.q.d.>., , >.b.G.a.g u g 7 x g V n S d.F . F t.C g B M N d.Y.",
"y # r c e B B * g g C -.x i V O.b i b _ i i h - h - D H.f.S q.q.b n , h h O.b b V 0.g o x f 6 ! h i b S , S D h g V * * M o , q.",
"e X r 6 6 B @ @ * @ f b v k i 0 i d d v _ O.$.,.,.S h d.,.o h n S _ d i n b O.Q k 7 5 $ 6 $ 6 7 x V -.D h , h g f V r f ~ g , h ",
"y c $ 8 y 6 r 6 & 7 x k v W +.#.*.4.8.y.y.y.8.y.r.y.y.r.=._ _ _ d i d s d i s k ! x 9 j + r r c V x -.q.d.b V V f V c f u k b h ",
"c 9 r 6 6 r 6 7 & k ;.5.4.4.8.8.8.8.8.2.2.2.3.2.2.2.2.8.8.8.8.8.7.=.=.=.@.:.5.:.r.! 7 6 t t 6 % g : g t.t.g * 7 5 j & 0 r.y.=.,.",
"9 $ 5 5 6 r % & & u $.5.*.%.&.%. .| | %.%.%.%.%.%.%.%.%.%.%.%.%.2.=.=.8.4.8.r.r.;.x * 7 M M t t % * M t.t.g & & X 5 & s 5.8.=.8.",
"9 $ & 5 r f * & 5 0 E *.%.[ [ ' ' ' [ } { [ ' ' } | | { { { { [ 1.} =.6.=.=.:.r.O.x u g g t : : : : M C B X X $ X & 0 a ] } { %.",
"9 5 6 6 r f 6 6 6 & k @.=.%.&.&. . .1. . .} ' ' ' ' [ [ { { { } | ( ( %.} @.=.=.k u 7 7 g t : : : : % % X X 5 j v T ) #.{ [ } ..",
"9 5 r 8 e e 3 e 6 5 k *.8.6.6.6.6.6.6.7.1.1. .} ' ' ' ' ' ' ' ' ( ( } | =.8.:._ i 0 = * * * * * o + * 7 f b ! $.*.@.=.&.' ' ..X.",
"y 8 y e e e 3 r 6 5 z ;.4.8.6.1.7.7.6.6.7.7.1.1.| } ' ' ' ' ( ( .. .7.7.6.8.=.i & & & & & * * = 7 u ! ! $.;.+.+.] / ( ( ^ ( ' X.",
"w 8 w e e e 3 e 3 2 9 E ) %.1.| &. .o.1.1.1.1.1.1.&.| } } [ } } o.o.1.1.1.2.) i @ & 0 f x V ~ -.$.+.*.+.+.#.R ] #.%.|  . .&. .1.",
"5 # 3 3 e e # # 3 $ $ 5 0 T *.@.%.| | | | %.&.&.1.&.%.%.| %.%.%.o.' ' ..{ [ ] I R +.$.$.-.$.$.$.) / &.[ { 3.#.2.%.2.7.1.7.&.| 1.",
"5 $ $ + + $ $ * $ 7 r 6 & 9 x b T [ %.] ] #.%.#.#.#.#.{ [ [ ] ] [ [ ] ] [ ] ] ] ] ] ` ` ] [ #.#.&.&.1.1.<.<.<.1.1.1.1.1.1.1.o.1.",
"j u 9 5 & $ $ @ X + + + @ * 7 5 0 I @.#.#.#.#.#.] [ { [ [ [ ] ] ] ] ] ` / / P P ' [ { } | o.o.o.o.o.1.o.1.1.1.1.1.&.&.&.&. .| | ",
"$.;.;.;.$.$.O.! ! ! x j u 9 & + $ s ] #.[ ] ] ] ] ] ] ] ] ] ` ` ^ ^ ^ ^ ( ' ' ' |  .<.1.1.1.1.1. . .%. . . .%.%.| | | | } } } } ",
"*.3.5.5.5.5.5.5.5.5.:.:.:.;.$.W a R [ [ ] ] ] ` ` ` / R R R R ^ P ^ ( ' | &.1.2.1.1.1.1.1.%. .| } } } } } } } } [ [ [ [ [ ] ] ) ",
"[ #.#.#.#.#.#.#.*.*.*.3.4.4.4.4.3.3.3.%.%.%.#.{ ] ` / P P P P ^ { | |  . .%.&.%.<.%.| | } } [ [ [ ] ] [ ] ] ' ] ] ) ) ) ) / / / ",
"[ ] ] ] [ [ { { #.#.#.#.#.] [ #.3.3.<.<.3.3.<.%.%.| ] ` ` ] [ {  . .| | } } [ ' | [ [ ] ' ] { { ) ] ) ) ) ( / / / / _ _ _ _ _ T ",
"P P P R ` ` ] ] ` ` ] [ { ] { <.@.[ { %.%.%.%.{ <.<.<.%.%.<.<.<.} } ' ' ' ' ' ' ' ' ( ( ( ( ) ) / / / / / R T T T T T T T T b b ",
"R R R R R R R P R R R ] ] / / ] ] ] [ [ [ [ [ #.{ { %.%.<.<.<.<.|  .} [ ' ' / / ( ( ( ( / / T T T T T T T T T T b Y b v v v v v ",
"I I I I I Y Y Y T T R R R R R R W R ) ) ] ] ] ] ] ] ] ] [ [ { { { { | | | | %.#./ / T I I I T T T T T Y Y v v a v v v v v k k k ",
"a a a z v v Y Y Y Y Y Y Y Y Y Y Q R R R R R R R / ) ) ] ] ] ] ] ] ] ] [ { [ [ [ #.@.@.) T T v v a a a a a a a z z z k j j k k k ",
"p p j j j l k k k l k z z z z z Y Y Y Y Y Y Y Y T Y R R R R R R R R / ) ) ] ) ] ] +.@.+.+.) W Q a a s s s s p p k k p u u u u u ",
"9 9 r r r y y j j j j j j j j j k k k z z z z z U U U Y Y Y Y Y Y Y T T W W W W Y W W +.+.+.+.+.W Q Y a s i 0 0 0 9 9 u u 9 7 7 ",
"6 e 8 e e e 9 9 r r 9 y y y y y j p p j j l l l k z z z z U z U z v Y E E E E E W W W W W W W W W W W W E z p p 5 0 0 0 7 7 6 6 ",
"3 3 3 3 6 3 6 6 8 8 8 8 8 8 9 9 9 9 9 q q q q q j p p l l l l l l k z z z U z z Y Y Y Y U Y Y Y Y E W W ! W E E z j 9 5 $ $ $ $ ",
"# # # 3 3 3 2 2 2 2 2 2 2 2 2 6 6 6 8 8 8 8 8 8 9 8 9 w w w w q p j j j j j j p l l l l a z U Y a a Y Y E E E E ! ! x j 9 & $ @ ",
"# # # # # # # # # # # # 4 4 4 4 2 2 2 2 2 2 5 5 6 6 6 8 8 8 8 8 9 9 q q q q q q p p p p p p s s a a a a z z z z x b ! ! ! c f 7 "
};
