/* XPM */
static char *_aa54c64c21a44a7b388470e21567631e8l2I12ZOUesAnhi[] = {
/* columns rows colors chars-per-pixel */
"64 64 112 2 ",
"   c #070000",
".  c #140B04",
"X  c #1D140C",
"o  c #20170E",
"O  c #251C14",
"+  c #281F16",
"@  c #281F18",
"#  c #292017",
"$  c #2D241C",
"%  c #30271E",
"&  c #31281F",
"*  c #2D2321",
"=  c #302721",
"-  c #342B24",
";  c #382F26",
":  c #372D29",
">  c #382F29",
",  c #393027",
"<  c #3C332C",
"1  c #3F3631",
"2  c #40372E",
"3  c #41382F",
"4  c #403730",
"5  c #443B34",
"6  c #483F36",
"7  c #443A38",
"8  c #483F38",
"9  c #494037",
"0  c #4D443C",
"q  c #50473E",
"w  c #51483F",
"e  c #4E4540",
"r  c #504740",
"t  c #544B43",
"y  c #584F46",
"u  c #564D48",
"i  c #584F48",
"p  c #595047",
"a  c #5C534B",
"s  c #5E5550",
"d  c #60574E",
"f  c #61584F",
"g  c #605750",
"h  c #645B53",
"j  c #685F56",
"k  c #685F58",
"l  c #696057",
"z  c #6C635B",
"x  c #70675E",
"c  c #71685F",
"v  c #706760",
"b  c #756C65",
"n  c #766D64",
"m  c #776E65",
"M  c #766D66",
"N  c #776E67",
"B  c #736A62",
"V  c #786F66",
"C  c #786F68",
"Z  c #797067",
"A  c #797069",
"S  c #7A7168",
"D  c #7B7269",
"F  c #7A716A",
"G  c #7B726B",
"H  c #7C736A",
"J  c #7D746B",
"K  c #7C736C",
"L  c #7D746D",
"P  c #7E756C",
"I  c #7F766D",
"U  c #7E756E",
"Y  c #7F766F",
"T  c #7B726B",
"R  c #80776E",
"E  c #81786F",
"W  c #807770",
"Q  c #817871",
"!  c #827970",
"~  c #837A71",
"^  c #827972",
"/  c #837A73",
"(  c #847B72",
")  c #857C73",
"_  c #847B74",
"`  c #857C75",
"'  c #867D74",
"]  c #877E75",
"[  c #867D76",
"{  c #877E77",
"}  c #847B74",
"|  c #887F76",
" . c #887F78",
".. c #898077",
"X. c #898079",
"o. c #8A8178",
"O. c #8B8279",
"+. c #8A817A",
"@. c #8B827B",
"#. c #8C837A",
"$. c #8D847B",
"%. c #8C837C",
"&. c #8D847D",
"*. c #8E857C",
"=. c #8F867D",
"-. c #8E857E",
";. c #8F867F",
":. c #90877E",
">. c #918881",
",. c #928980",
"<. c #978E87",
"1. c #988F88",
/* pixels */
", # 5 8 8 4 8 8 9 0 0 r r r 0 0 8 8 4 , , = + < 8 0 i a a a a a h k z l g u r 0 5 , = > < 8 0 p r a g a i p a p r r 0 8 8 9 8 , ",
"> , l Y @.@.@._ %.-.-.-.%.@.{ _ W Y A B l r - < B A W ^ ^ ^ ^ ^ K K A M b M A ^ u , $ 9 B  . .{ _ ^ Y K Y ^ Y C B M B v b A C v ",
"4 4 l M A B B l j k l l k j g g a g j k l r - , i a g a a p a a a a i t u a l M z < @ 0 Y %.Y v z g p p p p p i p a a a g j j g ",
"4 < a a p u a p r t i p p p i u u r u p s 0 * - a s s a i u i p u i i u i a j z g - # r K Y B z z k g a t 0 u g a a a p a a a p ",
", < g g a a g p r t u p p p u u g a a a h r - , a a a p t r r t 0 r r r r t p a u = $ p K A M A z g p u 0 8 0 p p p i i u r r u ",
", 1 h g p u p r p p a a p p u r r r u a g r - < a g g a i r r r r r t t t u a h i - $ t B z j k l a r 9 9 9 0 0 u u i p p u p a ",
"< 5 j g a a h a u u u u u r r 0 u p g g h 0 - < a g j g a i t t r r u t r u a g r * @ 0 l z j k g p e 8 8 0 0 9 0 0 r u u r u s ",
"> 4 l j a u p 0 0 0 r t u u r r u p g g a 8 = 1 i a g g a u r 0 t u p i u r u p 0 = # 9 h j h k u p u 9 4 8 0 0 0 0 r i u r u g ",
"- 8 g k a p u 0 r 9 9 e r r u a u g g h j 8 $ < u a p a a p a i i u t r u p s g 0 - $ < p j g p g r g z u 5 9 0 0 e r t u i p p ",
"- 5 a j g g g a u 0 0 r r r u a a l k j g 4 = 5 t s a g a p a t i i i u p a h j 4 = $ 4 a j g p z g h j r 8 e t u i p a g g h h ",
"- < i l g p t 0 r 0 e u u i a g a k h a r > $ 4 8 a k j a i g h k j h g a a a a 4 - = < u g a u k h a p u p g j g g a p p i u u ",
"= - 0 h k g g a r t i p u t t u i p i r 9 > $ , 0 p p u 0 8 0 0 8 9 9 0 0 r t u r 8 < 8 u j j j g j a t p h g g g a i r 0 0 0 0 ",
"= $ - 4 5 4 4 < , < 4 < - = = = - - = = = @ O O 5 < $ * = = - = # $ $ = = - - - < - = = < 9 9 8 9 0 < - , < , - O + + @ # $ $ $ ",
"C v B B k i 8 = $ - < < < 8 0 r g a s g h h g a u t 0 0 < = 8 p p p p i u r 0 9 8 8 8 4 4 4 < = - * * - 1 9 0 0 a g l b A K K A ",
"Y K ^ { ^ M g 8 < r j v M Y _ { ^ K K K A ^ { _ { %.@.^ a , t A Y ^ _ { { { ^ W A Y W A M z g u 4 , 9 j z M W ^ M A Y _  .@.@.@.",
"a i i p a j g 0 , u z C N B z j g a a i r p k l A B z B p , 0 z l z v B B z l j l B B z l l g p 5 - 0 z k a s a a p u t u p g h ",
"a a u u u p g u > u k g r 0 0 9 u r q 0 r p f j l h d l 0 - r a p p a d f a a p q q w r u p d g < - 5 r a a t y r r t u y p p p ",
"u u r r r p g u - u l s 0 0 t t t r 0 0 0 t p d j g d j q < t g g h h j j j h h u t t t u p a d 8 ; 6 p a p r t r r t t u u y u ",
"r r 0 r r p h i $ 0 j a 0 r p a r q 0 9 9 0 t u f a a h q 2 t g a a a p a a a d y u t r r t u p 5 # 4 p y u t t t t t t t t t t ",
"r r 0 r r i g u $ 8 p a t r u p a p u t t t y y a a a a 0 3 9 p p u t r t u p p p p u u u y p a 9 # 4 g a p p p 0 0 0 q r r t t ",
"p p t u u p g u , 4 r g g u r u a p y t t t t t f d f a w 5 5 u r w 0 0 0 q r t u t r r t u a a 0 # 5 f y r t r 0 0 0 q r t u p ",
"h h a a a g l p , < 9 a j a a g p p y u t t t t g g h p t 9 4 t 0 0 0 0 0 0 q w u t t r t y p a 8 $ 5 a p u t t u u p p p a a d ",
"u u r r r i g t - < 8 0 u p a g a a a a a a p p u y a r 0 6 , 0 t t u y y p u u a p y t u y p a 2 = 5 p a a y p y u u t t r r r ",
", , - > > 4 9 < - 4 8 < < 9 r r 0 q r r r r r w 6 9 w 8 8 4 = 8 0 w t u u t r w 0 0 9 5 5 5 5 5 % # - 5 0 9 3 5 9 6 5 3 < , - - ",
"- = $ $ + @ O .   O $ o X O + + X O $ $ - ; $ % $ % - < < < 8 q ; < 3 2 , = $ $ $ O = - O % ; , + 5 9 = + + O o O + $ $ % $ $ # ",
"p 4 > 4 r a k k g r 9 g B l j A c z g r 4 - # $ % $ $ $ $ + + $ $ + O O $ < 0 p j q < $ - j Y E a Z ^ A M M B x B M Z H A V n B ",
"k 4 , p B C A K A k u g Y  ._ ^ Z B l a 0 5 0 d J M B B z j f f l h f h x H ( { J z 0 + < z n z g B J J ^ ^ R R E ^ ^ ^ E Y A Z ",
"g , > a b z g a g z a 0 a M M j j f a p 6 3 a V J M B M M c l j z z x B c l f p p j y % 9 h a r y a a a g g a h g g g g f d a a ",
"g 4 , i l l g a j j a a a p a j h h f d 5 ; p z h a a h l h a a h h g a y t u y t g p = 0 d a a g g a p d p u p a a a a a a d f ",
"a 4 < t j l j g g p u a g u t g p d d g 5 , a l a a a h j d p p p p u q 0 q p g h g r + 9 y a a f h f f h a u p d d a a a g h j ",
"a 1 , r h j g a u a u r p a p u p g f g 3 - a a g h j z l a p p t t r r w r u p a p w O 9 a l h a h g d g d a a g f a a a a f g ",
"v 8 - 0 g j j k p a u r u u t u p g d f 3 ; f a p a h j d t 0 r w 0 0 0 t y p u a a p + < r h a h z j a a f h l h f a p y p p a ",
"p 2 < t a a a f a t 0 9 0 r u p g a j 0 , - y a p p p p t q 9 6 8 q y u q 0 r p h a w = 4 h a u j h f a a a a a h a a u 8 u j a ",
"g 6 4 u a d g j j g p r 0 q y a p a j 9 < 3 a t a p p u t t r r 0 0 r r w t u p a a t , 5 g a p a a f g h h j j d u t t 0 p g a ",
"w < 5 a j h d a l h d p t u p a f d h 9 < 6 g d y u r q q w t u 9 0 0 r p d g h f h y < < y p p h j j l l h f a f y r r u p a a ",
"r 8 0 g l h d p l j h l z z j f z h h t < 2 u a y t r r r r t t r t y p a d d a h h r - < r p a g h j j l j j h a p q 0 u a d j ",
"p 6 5 0 9 6 6 8 8 6 9 0 r w 0 9 r u a p 5 0 a d a a a a a p u u a a a p t r w w a f 0 < 5 u a a u u r q q 0 0 0 6 6 < , 5 q u a ",
"4 - - , - % $ # = - ; - = = ; < = 3 8 < $ 9 p q 9 9 0 0 0 6 5 3 , , , ; - , < 2 4 0 3 , 5 9 9 < , - = $ $ $ $ % , $ + # = , 3 5 ",
"q 0 t a p r 9 3 $ # + # % - ; - , - - < $ < < % X X X X X X X X $ $ % - , < - = - 9 8 9 r 0 w 4 < 2 4 5 9 0 w r 0 $ # 5 w r r 0 ",
"E A E { ^ H M z g t 0 p B Y M j , # , B c l u w l l j j l z B B z z z B B j 0 , 0 z B Y ..| >.$.-.-.:.-.@.{ E Y l , 2 B @...{ R ",
"j l x c z l h d z l h l B M B z 0 % 9 j B d j Y :.@.{ ( ) ^ A n n H V M z l 8 < p g l x M B x M c M J ^ ^ R A M a 8 2 B E Y V M ",
"h h h h g g d d h d a d j z z l 9 $ 9 a g t p j h a p p p p u t q t r u u a < = y a f d a t 0 w t p a g h g f a f 4 - h c z a y ",
"f f d a a a a a a p u y a g j l 6 # 9 p p t d p a u w 0 q r t t r r 0 w t a 2 - p h h d p w 9 9 0 w r u p a a a l 9 ; j n c g p ",
"a a d g g d a a p u t t u a h l 8 O 8 p u t g p g a u r r u p a f a r t y f 2 = w a g a y w 0 0 q 0 q r u p d g g 8 ; h c z g a ",
"p a a a a a a a u t r r t p f j 9 o 2 p u 0 p t d a u r 0 w t y d a r t y f 2 - 0 a g p r 0 9 9 q 0 0 0 r p a g g 6 , f g p t u ",
"p y t r r u a d y t w q r u p a 9 O < p a t a p a a p t w w t y a a t u p a < = 0 g j a u r q r r r w r t p a g j 0 2 g d t r u ",
"p y t r r y a g a p t t p a p u 6 $ 4 t d p a p r u u t w w t p t p t u r t = # 5 a h p u u u y r r r r t y p a g 6 , a a y u p ",
"p p p p a a f g j f p a g h a u 8 = 5 9 u t 0 6 0 r y y t t p a w p p p u u - $ 5 d l a y p p a p p p p p a a a l 0 , d h d a a ",
"a a g g a g h a a a g j j a r 8 4 < < 4 9 0 9 3 , 9 5 9 0 0 w 0 t t u t 0 4 - = - 0 p i i p i i r 0 r t r u p p p 8 4 p k g p a ",
"r r 0 8 4 8 8 4 0 9 8 4 < , = # % % % = - - % $ # = % = , , < < 4 4 8 8 9 8 > # , 8 0 9 8 4 < 4 8 4 4 4 5 8 0 0 a 9 4 9 0 5 4 8 ",
"+ $ - - = * # + o X o + = > < < 8 6 9 9 9 5 4 3 = , , - - $ $ - = - = $ = - - $ @ @ # $ = = - - - - - - - - = $ - # + + O X X X ",
"t 0 4 > = # , r v v B A ^ @.%.@.@.@.#.-.-.$...{ | | ) M f 6 - 3 z A A j p a g a a p p a g a 9 = 4 t h v A A C M j j k z v B v z ",
">.{ M z p < 8 z _ W K K Y Y Y K Y H A Y ) { ^ J H A ^ B a < # , M @.<.>.{ { { W A K ^ {  .{ g # = r z b A A A W K Y W { >.1.<.>.",
"B M A _ b 5 > i g p t t u a g g j g f j z B z h u t l j u 2 = r u a g g j z l a a p a a h b g $ - p l j g a p j z l j j z b b B ",
"t i u a p < - t h a p i a g g g a p p a g g a p p r j a 9 - # r l g t 0 0 0 9 8 t 0 r 0 0 s a - - a z h j g a l j g a a a p p a ",
"r a p a j 0 < 0 p p p a g g g a a g g g g a a p p 0 g p 8 - * g t r 0 0 0 0 0 0 4 4 i g p g a < = a l h k g u a a a g g a u u a ",
"s p r p a 4 - r a u r i p p a j g g g g g g g g i r u a 9 # - a p u r 0 0 r r t 8 9 0 r p j a 4 - a a u a a a p p p p a a p u t ",
"p p t a a 1 - r g p i p p p a g g g g g g g g g p u p g r = > s u r r r r t i p r r u p s k p 4 < g g u a p p p r r r r t i a a ",
"i p p g a 1 - 9 g a p a p u i a s s s s s s s s a a s j i > < a p p u u t u u u r r i a a g r > < s g i p i p a 0 0 0 e t i a g ",
"p s g h p 1 - 4 p i u i i u u u a a a a a a a a a a g h u < > e a a a p p i u u i u a a a p 0 - , a g a a u u u u i p a a a a p ",
"a g h g u 4 - , r t t u u i i u a a a a a a a a s g g s t < > 8 i p p a a a p p a p g g a i 0 > < p h j g i i r g g g g g g a a ",
"u i p i 0 4 > - 9 e r r t u u r i i i i i i i i a a i t e 1 < 5 r t t u u t r r r 0 r u 0 9 5 - - 0 u g g p a t p i u u i p p a ",
"8 8 8 8 4 4 < = 1 8 9 8 8 0 9 4 5 7 7 7 7 7 7 7 7 8 7 4 4 : : 1 8 9 9 0 9 8 4 < 1 , < 1 , , - $ $ , 4 9 0 0 r 8 4 4 4 4 4 8 9 9 ",
", - - > , 4 < = - < < < , < , = - - - - - - - - - - * * - - - < > , < 4 4 1 , , - = = - = = = $ = - = - = = - # # $ $ = - - = = "
};
