/* XPM */
static char *_84219a13ea94411802499fabd173c66vNZKbCqvxPOE2VS2[] = {
/* columns rows colors chars-per-pixel */
"64 64 220 2 ",
"   c #074F00",
".  c #025501",
"X  c #045C02",
"o  c #0B5D04",
"O  c #065708",
"+  c #0B5D0B",
"@  c #105504",
"#  c #125C02",
"$  c #1A5F02",
"%  c #165608",
"&  c #175C09",
"*  c #1C5F10",
"=  c #056301",
"-  c #0B6403",
";  c #066A02",
":  c #0C6C03",
">  c #0D640B",
",  c #0D6C0A",
"<  c #126305",
"1  c #1D6706",
"2  c #126D04",
"3  c #12660B",
"4  c #1C630A",
"5  c #136C0C",
"6  c #1A6B0E",
"7  c #1C6B02",
"8  c #067200",
"9  c #0D7303",
"0  c #067A00",
"q  c #0D7B02",
"w  c #0E730A",
"e  c #137404",
"r  c #1B7304",
"t  c #147B04",
"y  c #1A7C06",
"u  c #14740B",
"i  c #1A750C",
"p  c #157B0B",
"a  c #1B7C0C",
"s  c #136612",
"d  c #1D6512",
"f  c #146C12",
"g  c #1B6C12",
"h  c #176F18",
"j  c #186D18",
"k  c #157312",
"l  c #1B7413",
"z  c #167B12",
"x  c #1C7B13",
"c  c #1C731B",
"v  c #1E7C19",
"b  c #216707",
"n  c #22670A",
"m  c #236D0D",
"M  c #247107",
"N  c #207B06",
"B  c #24760A",
"V  c #2A730E",
"C  c #217D0D",
"Z  c #287F0A",
"A  c #226414",
"S  c #226D13",
"D  c #236D1A",
"F  c #296C1C",
"G  c #247414",
"H  c #2B7414",
"J  c #227C13",
"K  c #2C7A14",
"L  c #23751B",
"P  c #2B741B",
"I  c #247C1B",
"U  c #2A7C1E",
"Y  c #307B16",
"T  c #307719",
"R  c #327C1D",
"E  c #397F1C",
"W  c #207520",
"Q  c #2D7422",
"!  c #267C21",
"~  c #297D21",
"^  c #317526",
"/  c #357E22",
"(  c #337C29",
")  c #3A7F2D",
"_  c #0C8100",
"`  c #0E8900",
"'  c #158303",
"]  c #1A8404",
"[  c #168903",
"{  c #1C8C04",
"}  c #15830A",
"|  c #1B830C",
" . c #168B0A",
".. c #1D8B0B",
"X. c #1C9205",
"o. c #1D9907",
"O. c #1E920B",
"+. c #1E9809",
"@. c #168310",
"#. c #1D8312",
"$. c #1D8A12",
"%. c #1E8119",
"&. c #1E9213",
"*. c #228506",
"=. c #238C04",
"-. c #22850D",
";. c #29870D",
":. c #238B0C",
">. c #2A8C0E",
",. c #239305",
"<. c #289601",
"1. c #249A05",
"2. c #299C05",
"3. c #23930C",
"4. c #2A940C",
"5. c #249B0C",
"6. c #2B9C0C",
"7. c #319E0E",
"8. c #238413",
"9. c #2A8516",
"0. c #238B13",
"q. c #2A8D14",
"w. c #24831A",
"e. c #2A841B",
"r. c #268B1A",
"t. c #2B8B1B",
"y. c #318F15",
"u. c #358218",
"i. c #338C1D",
"p. c #229210",
"a. c #249313",
"s. c #219616",
"d. c #249412",
"f. c #2B9314",
"g. c #249917",
"h. c #259A13",
"j. c #299B10",
"k. c #2C9E13",
"l. c #2B9A13",
"z. c #259319",
"x. c #28941A",
"c. c #2C921B",
"v. c #219818",
"b. c #249B1B",
"n. c #279A1B",
"m. c #2A9D1B",
"M. c #319516",
"N. c #329D14",
"B. c #32941B",
"V. c #339A1B",
"C. c #389E1E",
"Z. c #2AA205",
"A. c #2EA107",
"S. c #2BA006",
"D. c #26A10B",
"F. c #2BA208",
"G. c #2EA108",
"H. c #2FA10B",
"J. c #2EA00A",
"K. c #2EA109",
"L. c #2FA708",
"P. c #2FA408",
"I. c #2EA10C",
"U. c #2BA10C",
"Y. c #32A50A",
"T. c #31A60A",
"R. c #31A30D",
"E. c #30A20C",
"W. c #32A40E",
"Q. c #32A50D",
"!. c #34A70C",
"~. c #30A40E",
"^. c #31A90B",
"/. c #33A80C",
"(. c #34A90D",
"). c #26A011",
"_. c #2BA113",
"`. c #2CA312",
"'. c #2FA618",
"]. c #2EA319",
"[. c #33A711",
"{. c #33A314",
"}. c #36AA13",
"|. c #35A21A",
" X c #33AA1D",
".X c #3AAC18",
"XX c #278620",
"oX c #2C8322",
"OX c #2C8B22",
"+X c #2C8529",
"@X c #2F8B29",
"#X c #328324",
"$X c #3C8527",
"%X c #328C23",
"&X c #33862B",
"*X c #3D862A",
"=X c #348B2C",
"-X c #3A8B2A",
";X c #2E9224",
":X c #2E9C23",
">X c #2F9228",
",X c #329421",
"<X c #3B9424",
"1X c #349922",
"2X c #3B9927",
"3X c #31942B",
"4X c #38902C",
"5X c #379B2B",
"6X c #3A992B",
"7X c #3D8033",
"8X c #358B32",
"9X c #399238",
"0X c #3B9C33",
"qX c #38A023",
"wX c #35A225",
"eX c #429638",
"rX c #42983D",
"tX c #499D3D",
"yX c #459742",
"uX c #4BA249",
/* pixels */
"s ! c f c k , %.z } $.v.&. . .g.} $.z.g.3.{ O.+.` X.o.5.5.X.{ _.1.6.6.,.,.U.!.A.2.2.Y.S.,.E..X<.S.S.S.S.2.2.2.6.=.4.=.*.y.q.;.y.",
"s W c f c k , x #.@.}  .&.v.&. .} $.z.g.3.X.O.+.[ X.X.5._.+.X.k.1.6.6.,.,.U.~.S.2.S.Y.2.<.E.}.2.Y.U.U.U.K.K.6.6.=.4.=.*.q.>.;.y.",
"> c h f k , , z z #.$.} &.v.s.} } ..0.a.p.O.O.+.+.o.X.5.'.5.X.j.1.6.6.,.,.U.~.K.<.Y.K.2.6.E.U.K.(.^./.Y.E.K.7.7.=.4.=.*.>.>.;.q.",
"> f f 5 , , , w w #.0.$.....&.&.} } $.p.3.O.+.+.5.+.X.5. X_.,.5.1.6.6.,.,.K.~.K.2.!.2.<.~.E.2.~.^.L.Y.K.K.K.6.6.=.4.=.=.>.;.*.>.",
"> , f f , : w w p } $.a.$. . .s.} } | ..p.3.+.X.).5.X.5. Xk.O.5.3.6.5.,.,.K.~.K.2.Y.2.<.~.U.1.[.U.S.S.2.2.2.2.4.=.4.:.=.>.;.] ;.",
"f , k k : : u w #.t q $.z.&. ...t t } ..a.h.3.X.5.5.+.5.'.5.{ 5.3.6.5.,.,.K.~.S.S.S.2.K.[.6.1.[.S.S.2.2.2.1.,.,.,.4.=.=.>.-.] -.",
"f , l l : , z w @.p p ..a.a... .t t t ..a.h.3.X.+.5.3.5.l.{ [ 5.3.6.5.X.,.K.~.S.Y.<.2.~.U.2.6.U.K.K.K.6.6.2.6.6.,.4.=.=.>.=.' *.",
"k , l v : 9 z u 9 #.0.$.} ..p.$.t t t } a.l.d.X.X.5.5.5.h.[ ' 5.3.5.5.X.,.6.~.K.}.X.2.}.6.1.{.U.~.~.~.K.U.6.6.6.,.6.,.=.=.=.' ] ",
"v l l z u u u w u q q t } ....} | e | 0....._ X.[ 5.j.{ [ { O.{  X'.o.[ 5.5.1.U.S.2.6.6.U.U.U.U.~.1.<.6.6.1.6.{.|.l.,.{ =.,.=.{ ",
"l l z z p u w w p t q } ..$.....| e #.0.....' O.[ 3.5.X.[ { 3...|.].+.{ 5.5.1.U.U.U.U.U.U.U.`._.{.1.<.6.6.,.6.{.{.6.,.,.,.,.=.[ ",
"z p p p p u u t | } } } $.a.0.$.#.e #.0.0...' O.[ O.5.X.{ ,.a.5.]._.O.[ 5.U.1.U.U.U.U.U.U.`.`.`.U.6.1.6.6.,.6.U.6.5.1.1.1.1.{ [ ",
"u u u u u u u t #.} } | 0.z.z.0.#.e 8.0.0...' O.[ { ,.O...,.d.l.m.m.X.{ j.U.1.U.U.U.U.U.`.`.`.`.`.6.2.1.,.,.1.6.1.1.5.6.6.1.{ [ ",
"w u u u u u u t #.| } | 0.z.z.0.8.e 8.0.0...' ..[ { O.3.3.:.a.l.d.j.X.X._.U.5.U.U.U.U.U._._._.`.U.6.6.,.,.,.1.1.,.1.6.6.5.3.X.X.",
"9 w w u u u t p | } p | 0.z.0.0.8.e 8.0.0.0.[ 3.{ { ,.d.3...:.l.O.h.X.X._.`.5.U.5.5.5.5.5.5.j.6.`.{.6.,.X.,.1.,.,.1.6.6.1.,.3.3.",
"9 9 9 w u p p p } p t } $.0.0.0.8.t 8.0.0.0.[ 3.3...3.h.3.{ ..f.O.+.X.X._.`.5.D.1.1.1.1.5.5.5.5.k.{.6.,.{ ,.,.{ ,.5.5.3.X.X.5.6.",
": 9 9 w u p p p p t t p ..0.0...8.t 8.0.0.:.[ ,.5.,.,.j.3.] ] g.{ O.X.O.`.`.5.U.,.,.,.,.3.5.3.5.6.[.6.X.{ 3.3.{ 3.5.5.3.X.X.5.`.",
"; , k k w w p #.#.| } }  ...a.g.0.} -.f.,.,.6.6.6.,.6.N.,.:.:.' { 3.3.{ { 1.1.{ 1.,.,.,.,.3.d.h.`.D.1.5.k.5.X.[ { 3.l.5.{ [ X.5.",
"; w k k w u p #.| | } }  ...p.g.0.} ..f.,.,.2.2.2.<.6.7.,.:.:.[ ..p.3.{ :.4.4.=.4.,.:.{ :.3.d.d.`.D.1.5.j.h.O.[ O.O.....3.5.1.,.",
", w k k u p p #.| } } ] } ..p.d.0.} ..f.,.,.2.2.2.<.6.6.,.,.3.]  .3.3.{ :.4.4.,.=.=.=.{ ....3.3.D.1.1.5.j.5.O. .g. .' [ j.|.6.{ ",
", u u p z p a #.| } } } ] ..3.d.a.} ..f.,.,.2.6.6.,.6.6.,.,.d...{ 3.3...:.6.l.4.=.=.{ [ { ....O.5.1.5.5.5.3.O.{ d.} q [ l.|.j.{ ",
"u u u p p @.| | } } } } ] ..3.d.a.} ..h.,.X.6.6.6.,.,.5.=.,.d.O.{ 3.p...3.l.N.4.=.=.{ [ { ....O.o.1.5.5.5.+.O.O... .[ { 5.j.j.1.",
"p u u p @.#.| | } ] ' ' { ..,.a.a.} ..h.3.X.5.5.6.X.1.5.{ O.l.d.{ O.p...3.N.N.6.,.=.=.{ ....3.3.{ o.5.5.3.O.O.O.{ { ....,.3.5.5.",
"p e e t #.0.#.} ] ' ' ' ] ..,.d.&.} ..h.O.O.5.5.5.o.3.3.{ O.n.s. .3.3.,.3.N.|.N.4.,.:.{ :.3.d.d.[ o.5.5.O.X.O.3.........:.3.3.,.",
"a e 9 t | 0.-.| ] ' ' ' ] ..:.p.&.} ..h.O.O.h.h.j.X.+.+.{ O.n.h.} 3.3.,.4.N.|.N.4.4.,.:.3.3.d.h.[ X.5.5.O.{ O.5.a.......3.3.:.{ ",
"e 8.0.t t 0.0.t ..] } ' ] ..3.d. .0 $.m.{ O.h._ O.5.3.{ X.h.n.h.O.O.{ d.f.{ 4.4.] |.|.,.l.|.d.[ k.h.O.{ [ { { { { { q [ -.-.f...",
"y | 8.y } 8.8.} 0... .} ..:.d.g. .0 $.m. .O.h._ { O.O. .{ d.h.d.O.O.] d.f.{ 4.4.] |.|.,.l.V.d. .h.5.O.{ { { { { :.:.t ] :.-.f.-.",
"#.a | 8.#.| #.0.0.0.$...0.p.g.z. .q $.n.....g.[ { ....[  .&.d.3.O.O.{ d.f.{ 4.4.=.|.N.,.l.m.3.{ h.d.3...{ { { ,.,.3.' ..:.:.c.0.",
"#.| a | #.#.0.r.0.0.$.$.$.0.0.0.} } 0.z.....p. .}  . .' ' ..3...O.O.{ d.f.{ 4.4.,.|.N.,.f.l...{ d.d.3.,.,.,.,.,.3.4.{ :.0...c.0.",
"a #.| y | 0.r.r.| | #.#.| | | | } } 0.z.| } $.$.}  .} ' ' ..:...O.O.] d.f.=.4.4.4.|.l.,.f.d. . .3.p.p.3.,.,.,.,.3.l.:.:.-...c.0.",
"a a p t p #.r.r.} @.#.#.#.} } p t $.0.0.| } $.z.} ..| ' ' ..:...3.O.] d.f.=.4.4.l.|.l.,.f.3.{ { ..$.p.a.d.5.,.,.,.l.:.3...] 0.0.",
"a e 9 e p p #.;X@.#.$.$.$.#.} p t $.0.$.| p | c.| ....} ] :.3...:.O.] d.f.=.4.4.N.|.l.,.d...[ ......p.d.j.5.1.,.=.f.:.:.} t 0.0.",
"x ; ; p a w a 3X#.0.0.0.r.$.| } t 0.0.#.} t | c.} 0...] ] :.a.:.:.:.] d.f.=.4.4.N.|.f.,.d...' .. ...p.g.f.d.3.3.{ f.:.-.} 9 #.#.",
"; ; ; : : ; e 8.r.t t y y -.:.t 9 0.0.0.] ] qXf.0.0.-.} -.c.0.] ' :.' l.t f.] >.M.C.f.-.f.0...f.]  ...p.p.p... .q m.wX| 8 t $.$.",
"; w u : ; : p | r.y y a y -.:.] 9 #.0.0.t ] V.f.:.:.-.] 0.c.0.] ' 4.' ;.9 f.-.:.f.V.B.-.:.q.q.0.}  ...p.p.0.....t c.:X} 0 } $.$.",
"w l z u : p x p r.y a -.] :.q.-.t | 0.q.] ] V.f.:.>.:...0.c.0.| *.V.] ' : M.f.:.q.V.V.-.y f.B.........0.0.0.$...| z.z.} q } $.} ",
"z v v z u z x i 8.a | -.| :.c.q.| 8.q.c.-.:.V.f.;.q.q.-.-.q.q.| q.V.-.*.t V.f.:.q.:.f.:.t 0.B.] ......:.:.:.0.$.$.0.$.t t | #.p ",
"w.z z w.w.x a x 8.y -.-.| 8.B.t.t.0.c.B.q.f.V.V.-.f.f.-.-.0.q.-.V.M.:.f.f.V.f.:.q.] :.0.y -.c.| -.-.......0.0.0.0.0.| t p | | p ",
"w.p p w.t.8.z #.a p -.8.y -.c.c.,X-.c.B.q.f.f.B.*.f.f.:.-.0.q.0.V.f.:.M.V.V.q.-.:.] ] -.| | 0.0.-.......| ..0.0.0.$.| p p } | p ",
"z u i 8.t.t.8.x u e a -.y a t.c.,Xy q.c.q.q.;.f.*.f.B.:.-.0.q.0.V.M.;.*.q.V.f.] y -.| t | -.8.0.-.-.| } ..| 0.0.0.#.| y p t p | ",
"u i i i w.OXt.i e e a | e a t.t.B.e 0.q.-.:.] :.*.f.B.>.-.8.q.9.V.V.-.9 ' f.f.t e q...9 y 0.8.8.0.-.| } | | 0.0.8.#.| | p e p #.",
"i e J e.x J w.i t.i e a 2 t.8.8.t.e : -.B.:.*.:.;.q.B.B.c.q.9.q.f.f.f.q.0.:.:.-.,X| 9 t | | t t q.| e 9 e -.8.| 8.; : 0.r.8.8.r.",
"OXJ x x i J J x e.u e a 2 t.w.9.-.e 9 y q.q.>.:.:.q.M.f.q.-.8.q.f.f.f.f.0.:.-.-.B.-.y -.q.0.| | c.a 9 e | 0.-.y 0.: : 8.8.a 8.w.",
"%XOXJ i J J a i J 2 e a 2 t.e.t.B.9.-.-.-.q.*.t >.q.q.:.-.| -.0.f.f.f.q.0.:.0.-.q.-.8.c.c.0.8.q.t.y e -.0.a y a r.e e x i u x 8.",
"J e.a i OXe.2 e x 2 e a 2 t.e.%Xi.t.q.-.q.f.>.*.q.q.q.-.y y -.8.f.f.q.0.0.-.-.-.y | 0.c.t.| 8.t.-.y 8.,X0.: e 9.r.e e a e e i i ",
"e x e u e.J 2 u i 2 u x : e.e.%X<XB.q.M.B.q.>.>.q.q.q.*.y y a -.q.q.0.0.0.-.-.-.y | 0.c.t.| 8.t.-.C t.2X9.: 2 t.e.p a a e 2 i i ",
"u i e 2 u u i J i 2 i J - w.I %X2XB.B.y.q.;.*.*.q.y.q.;.a y y | q.q.0.0.0.-.-.| 0.0.t.,Xt.8.8.,Xt.;.8.B.t.a e C J a 8.w.u e a i ",
"i i J a : : i J x u x J - I J OXa 8.8.-.N >.;.*.>.M.M.q.-.y y y q.0.0.:.-.-.| | c.0.0.t.0.| 8.t.i.t.9.9.9.8.a a i a e.t.a a J i ",
"i i i.%X2 : i u J i J J - J J t.e 9.9.e e -.-.e q.B.B.B.9.C r y 9.q.0.0.8.8.| #.c.8.| #.a p p 8.9.B.B.9.C C C C e a %X%XJ J J i ",
"r i 9.i.w.2 2 z e.i w.e.2 2 y.<Xw.i OX2 u e i 9.J <Xi.i.B 7 u.B 8.q.y y c.a e >Xr.u #.3X8.e x t.8.c.9.y -.2X,Xa e.C 9.a C e.I #X",
"M r B 9.a = - I v w.e.9.;.y Z <Xe.l OXu l u x e.e.%Xe.K K Y E M <X-.8.t.8.x w.r.w : l w.u z e.r.8.c.q.8.9.B.9.e w.C e.J J e.J e.",
"J r r 9.x ; : OXp t.r.9.,X;.y <Xe.v +Xi v l I oXl J #XG m H V V eXe 8.B.e p OXi u u z l 2 u x p 0.0.q.c.c.q.a e 8.a e.J J J i i ",
"9.a J t.w.u z OXz w.8.r.t.C N i.oXI oXk I l oXoXJ e.-XG m H b K i.2 a 0.; : w.: v , u I u : u u 0.-.0.q.t.8.| | 8.a e.J J J 2 e ",
"i x w.e.w.%.v x %.u z 8.a y 8.9.oXI I g ~ L &XoX=X&X#Xm R $Xn m 9.y a p : u v u l : u I x J w.w.8.} } | | -.0.B.-.a 8.8.C C e e ",
"- u x z x #.z w w.: p w.e y 9.J U L l 6 ~ l =X~ I #XG < H T $ 1 C 8.J i a J I I l v I v l OX%Xp } } } t t | c.1X8.y 0.| a 8.e y ",
"; 2 u u z z z w x w p w.w.x J J I L s 3 ! l &XI o U 6 # S m 4 m i 8.J i l oX+XoXU oXe.l i oXt.: t 0.0.t t 0.c.c.0.| 0.| | 0.| 0.",
"l 5 , u l z z %.w #.z w.6Xt.u I L D 3 3 I g &XI 3 #X< < *X$X/ K 6 u x i 5 U =XI L g l J J e.OXx 9 r.c.} t 0.r.| 0.| 0.} | 0.0.c.",
"I 5 l %.u w z w z w OX; 0Xw.: J 6 Q d o L =X+XU 6 U 6 G / P P #XJ : 2 G U U U #Xg < < I X i t.6X8.5X0.| r.| | | 0.,X#.; q p p | ",
"k 5 k k , w w w u z 3Xw OXv - I g Q L g Q =XoXf l ~ < U $X6 #X#XoX5 < g I &X&XG g 6 g U 5 w.e.v p r.p #.8.u a 8.#.| 9 9 9 9 9 | ",
"> 5 , = , ; ; ; p #.>Xz w.I = L g G L U ~ &XU = I e.- -X&X< -XU i k I +XQ &X( o S G L U 6 e.e.i u v i r.w.p r.>Xt.9 9 #.z 9 u r.",
"X f > X , , = ; #.%.w.l v =XX 5 ~ 6 L =X&X=XoXu oXw.k =XU 6 -XG 5 k ~ &XL Q Q   F P P G k I e.w.u w.I XXw.z OXOXw.; 9 r.@.e #.r.",
"X j 3 X , u : : v %.w.v k =X- > I . X I I l v v XXJ OXw.i J e.l +Xc o s g D ^ @ Q A 4 S #XoXw.I 5 @XU k k l I u 5 = 9 z u u #.p ",
"X j s o > k u : u v @XI 3 +X> 6 L . . 5 k 5 k w.w.w.3Xi e e.x 5 ~ oXo > D d Q * F & # S tX4Xl - f rX~ 3 L I l : - , z u u #.8.9 ",
"O s j > X k v ; : u =Xv 3 +Xg 6 +XG 2 5 w.w.w.OX%.OXr.u u J e 2 , 9Xj s Q D ^ A A d A S eXoX5 = L uXL > &X+Xf 5 = v w.z v r.#.w ",
"O + s > . k I ; u 2 oXu 6 =Xc > l I 2 X i w.p u #.>Xa p x e 2 2 l uXs . ( ) 7XF % Q ) 6 U 5 : 5 l yX3 . 8X~ = 5 . l l , v %.w ; "
};
