/* XPM */
static char *_4e89973fd9a4040eb133f4ee4f923f5QK6zb3Etl4z5cLCY[] = {
/* columns rows colors chars-per-pixel */
"32 32 162 2 ",
"   c black",
".  c #270000",
"X  c #3D2529",
"o  c #333039",
"O  c #3C3138",
"+  c #3C3B3C",
"@  c #550000",
"#  c #5A0900",
"$  c #580B09",
"%  c #53130A",
"&  c #411819",
"*  c #600000",
"=  c #49211B",
"-  c #4F2E2C",
";  c #46303D",
":  c #57393A",
">  c #692826",
",  c #65322D",
"<  c #70342E",
"1  c #7A332D",
"2  c #6A3636",
"3  c #763C3C",
"4  c #7B3E38",
"5  c #4E3642",
"6  c #423D59",
"7  c #6F3B40",
"8  c #444447",
"9  c #514F55",
"0  c #5A4658",
"q  c #624747",
"w  c #665C5D",
"e  c #7D5155",
"r  c #5C5363",
"t  c #605370",
"y  c #646465",
"u  c #746374",
"i  c #767475",
"p  c #941600",
"a  c #A23E32",
"s  c #84443A",
"d  c #8D433A",
"f  c #98443C",
"g  c #A84A3D",
"h  c #AE503D",
"j  c #924E45",
"k  c #9B4C43",
"l  c #87504C",
"z  c #92544E",
"x  c #99544B",
"c  c #8C565B",
"v  c #9A5B51",
"b  c #A75646",
"n  c #B05240",
"m  c #A95E52",
"M  c #B8624F",
"N  c #AD6254",
"B  c #B36152",
"V  c #B86654",
"C  c #BA6957",
"Z  c #BB6D5B",
"A  c #805667",
"S  c #9A6A6A",
"D  c #846775",
"F  c #986F77",
"G  c #887473",
"H  c #A06766",
"J  c #A16D67",
"K  c #AF6F68",
"L  c #B46F67",
"P  c #B4756C",
"I  c #B97569",
"U  c #B87669",
"Y  c #AF7570",
"T  c #B47B76",
"R  c #B97F79",
"E  c #C16B5B",
"W  c #C47765",
"Q  c #C17866",
"!  c #C67D6C",
"~  c #B6827B",
"^  c #BA857D",
"/  c #C58071",
"(  c #C88578",
")  c #C78C7F",
"_  c #CE887A",
"`  c #576198",
"'  c #656187",
"]  c #7C7697",
"[  c #7E7B93",
"{  c #666FA6",
"}  c #787CAB",
"|  c #817EA6",
" . c #888485",
".. c #8C8E8F",
"X. c #9F8799",
"o. c #8E9092",
"O. c #919192",
"+. c #979798",
"@. c #9C9A9A",
"#. c #A38F8E",
"$. c #BE8881",
"%. c #A29A9A",
"&. c #BC9D9A",
"*. c #8C86A7",
"=. c #8D88A5",
"-. c #958DA3",
";. c #9191AD",
":. c #8E8FB4",
">. c #A799A5",
",. c #A29BB4",
"<. c #ABA5A4",
"1. c #ABA7A8",
"2. c #B2A4A7",
"3. c #A7A8B0",
"4. c #A8A7B8",
"5. c #AAACBB",
"6. c #B1B3BF",
"7. c #C18781",
"8. c #C48A85",
"9. c #C58D8C",
"0. c #CB9086",
"q. c #CB938D",
"w. c #C59494",
"e. c #CF9892",
"r. c #C4A29F",
"t. c #C2A3A3",
"y. c #C2A7AE",
"u. c #C9ACAB",
"i. c #C1A9B0",
"p. c #C0A9B9",
"a. c #C4B1B1",
"s. c #C4B8B8",
"d. c #9C9DC6",
"f. c #9C9ECB",
"g. c #A8A3C2",
"h. c #A9A2C8",
"j. c #B2ADC4",
"k. c #B6B5C0",
"l. c #BFBEC3",
"z. c #A8ACD7",
"x. c #B2AED5",
"c. c #B8B7D5",
"v. c #B3B2DC",
"b. c #B8B6DC",
"n. c #BBB8DE",
"m. c #C2C6C7",
"M. c #CDC4C4",
"N. c #CBCCCE",
"B. c #D8C3C1",
"V. c #D6CDCD",
"C. c #D2CDD2",
"Z. c #D3D3D3",
"A. c #D9D2D3",
"S. c #DDDBDC",
"D. c #C3C2EC",
"F. c #DEDFE0",
"G. c #E3E3E3",
"H. c #E8E8E7",
"J. c #E4E7E8",
"K. c #E6E9E8",
"L. c #EBEBEA",
"P. c #F0F1F0",
/* pixels */
"G.G.G.G.G.G.G.G.G.G.G.G.G.G.G.G.G.G.G.G.G.G.G.G.G.G.G.G.G.G.G.G.",
"G.G.G.G.G.G.G.G.G.G.G.G.G.G.G.G.G.G.G.G.G.G.G.G.G.G.G.G.G.G.G.G.",
"G.G.G.G.G.G.G.G.G.G.G.G.G.G.G.G.G.G.G.G.G.G.G.G.G.G.G.G.G.G.G.G.",
"G.G.G.G.G.G.G.G.G.G.G.G.G.G.G.G.G.G.G.G.G.G.G.G.G.G.G.G.G.G.G.G.",
"G.G.G.G.G.G.G.G.G.G.G.G.G.G.G.G.G.G.G.G.G.G.G.G.G.G.G.G.G.G.G.G.",
"G.G.G.G.G.G.G.G.G.G.G.G.G.G.G.G.G.G.G.G.G.G.G.G.G.G.G.G.G.G.G.G.",
"G.G.G.G.G.G.G.G.G.G.G.G.G.G.G.G.G.G.G.G.G.G.G.G.G.G.G.G.G.G.G.G.",
"G.G.G.G.G.G.G.G.G.G.G.G.G.G.G.G.G.G.G.G.G.G.G.G.G.G.G.G.G.G.G.G.",
"G.G.G.G.G.G.G.G.G.G.G.G.G.G.G.G.G.G.G.G.G.G.G.G.G.G.G.G.G.G.G.G.",
"G.G.G.G.G.G.G.G.G.G.G.G.G.G.G.G.G.G.G.G.G.G.G.G.L.L.G.G.G.G.G.G.",
"G.G.G.G.G.L.L.G.G.G.G.G.G.G.G.G.G.G.G.G.G.G.G.K.1.+.G.G.G.G.G.G.",
"G.G.G.G.Z.@.l.N.Z.S.H.G.G.G.G.G.G.G.G.G.G.G.G.B.Y z G S.G.G.G.G.",
"G.G.G.G.Z.y 8 o O 9 N.G.G.G.G.G.G.G.G.G.G.G.A.9.q._ % +.L.G.G.G.",
"G.G.G.G.G.L.Z.: J S 2.L.G.G.G.G.G.G.G.G.G.J.r.K ! d   i L.G.G.G.",
"G.G.G.G.G.G.K.%.z R ~ a.S.G.K.G.G.G.G.G.G.G.^ 8.E 4   O.L.G.G.G.",
"G.G.G.G.G.G.K.V.* < m b Y t.M.A.S.K.G.G.G.V.U ( b m s m.L.G.G.G.",
"G.G.G.G.G.G.G.S.@. .#.q d L P ^ ~ &.S.G.L.s.j x f g G G.G.G.G.G.",
"G.G.G.G.G.G.G.G.L.L.L.Z.w # m B B h L u.A.F.O.$ a p M.K.G.G.G.G.",
"G.G.G.G.G.G.G.G.G.G.G.L.G.o.- @ > d n ! w.y.i.w.9.S C.G.G.G.G.G.",
"G.G.G.G.G.G.G.G.G.G.G.G.G.L.N...+   > N W U T q.q.e.w.Z.G.G.G.G.",
"G.G.G.G.G.G.G.G.G.G.G.G.G.G.G.L.Z.i X . 1 M ! ! Z Z C t.G.G.G.G.",
"G.G.G.G.G.G.G.G.G.G.G.G.G.G.G.G.G.L.Z.+.: 7 v N Z V V $.S.G.G.G.",
"G.G.G.G.G.G.G.G.G.G.G.G.G.G.G.G.G.G.G.P.>.6 r & j / Q ^ S.G.G.G.",
"G.G.G.G.G.G.G.G.G.G.G.G.G.G.G.G.G.G.G.G.l.t =.u 7.) ( U S.G.G.G.",
"G.G.G.G.G.G.G.G.G.G.G.G.G.G.G.G.G.G.G.L.k.' b.[ p.0.b D G.G.G.G.",
"G.G.G.G.G.G.G.G.G.G.G.G.G.G.G.G.G.G.G.L.4.| D.F H S 5 ;.G.G.G.G.",
"G.G.G.G.G.G.G.G.G.G.G.G.G.G.G.G.G.G.G.L.4.| n.c k l >.-.G.G.G.G.",
"G.G.G.G.G.G.G.G.G.G.G.G.G.G.G.G.G.G.G.L.<.*.x.2 3 e X.,.G.G.G.G.",
"G.G.G.G.G.G.G.G.G.G.G.G.G.G.G.G.G.G.G.L.@.] h.= , D g.j.G.G.G.G.",
"G.G.G.G.G.G.G.G.G.G.G.G.G.G.G.G.G.G.G.L.3.} v.:.; =.v.j.G.G.G.G.",
"G.G.G.G.G.G.G.G.G.G.G.G.G.G.G.G.G.G.G.L.6.{ d.v.0 g.D.c.G.G.G.G.",
"G.G.G.G.G.G.G.G.G.G.G.G.G.G.G.G.G.G.G.L.5.` f.z.A D d.g.G.G.G.G."
};
